<?xml version="1.0" encoding="UTF-8" standalone="no"?>
<!-- Created with Inkscape (http://www.inkscape.org/) -->

<svg
   width="180.00014mm"
   height="80mm"
   viewBox="0 0 180.00014 80"
   version="1.1"
   id="svg5"
   xml:space="preserve"
   inkscape:version="1.3 (0e150ed6c4, 2023-07-21)"
   sodipodi:docname="Gadget_Basis.svg"
   xmlns:inkscape="http://www.inkscape.org/namespaces/inkscape"
   xmlns:sodipodi="http://sodipodi.sourceforge.net/DTD/sodipodi-0.dtd"
   xmlns="http://www.w3.org/2000/svg"
   xmlns:svg="http://www.w3.org/2000/svg"><sodipodi:namedview
     id="namedview7"
     pagecolor="#ffffff"
     bordercolor="#000000"
     borderopacity="0.25"
     inkscape:showpageshadow="2"
     inkscape:pageopacity="0.0"
     inkscape:pagecheckerboard="0"
     inkscape:deskcolor="#d1d1d1"
     inkscape:document-units="mm"
     showgrid="false"
     inkscape:zoom="1.0544998"
     inkscape:cx="317.68617"
     inkscape:cy="131.34189"
     inkscape:window-width="1920"
     inkscape:window-height="1137"
     inkscape:window-x="1912"
     inkscape:window-y="-8"
     inkscape:window-maximized="1"
     inkscape:current-layer="layer3" /><defs
     id="defs2" /><g
     inkscape:label="Ebene 1"
     inkscape:groupmode="layer"
     id="layer1"
     transform="translate(-11.304844,-17.691941)"><g
       id="g444"
       transform="matrix(0.1,0,0,0.1,138.28261,48.470972)"><g
         id="elements-5"
         transform="translate(249.05695,211.04299)" /></g></g><g
     inkscape:groupmode="layer"
     id="layer2"
     inkscape:label="cut"
     style="display:inline"
     transform="translate(-11.304844,-17.691941)"><rect
       style="fill:none;stroke:#000000;stroke-width:0.116232"
       id="rect234"
       width="179.88391"
       height="79.883766"
       x="11.36296"
       y="17.750057" /></g><g
     inkscape:groupmode="layer"
     id="layer3"
     inkscape:label="engrave"
     style="display:inline"
     transform="translate(-11.304844,-17.691941)"><g
       id="g409"
       transform="matrix(0.10775862,0,0,0.10775862,209.61461,19.884818)"><g
         id="elements"
         transform="translate(-429.5561,-8.7072183)"><path
           style="fill:#000000"
           d="m 8,8 h 8 v 8 H 8 Z m 8,0 h 8 v 8 h -8 z m 8,0 h 8 v 8 h -8 z m 8,0 h 8 v 8 h -8 z m 8,0 h 8 v 8 h -8 z m 8,0 h 8 v 8 h -8 z m 8,0 h 8 v 8 h -8 z m 24,0 h 8 v 8 h -8 z m 48,0 h 8 v 8 h -8 z m 8,0 h 8 v 8 h -8 z m 8,0 h 8 v 8 h -8 z m 8,0 h 8 v 8 h -8 z m 8,0 h 8 v 8 h -8 z m 24,0 h 8 v 8 h -8 z m 8,0 h 8 v 8 h -8 z m 8,0 h 8 v 8 h -8 z m 8,0 h 8 v 8 h -8 z m 8,0 h 8 v 8 h -8 z m 8,0 h 8 v 8 h -8 z m 8,0 h 8 v 8 h -8 z M 8,16 h 8 v 8 H 8 Z m 48,0 h 8 v 8 h -8 z m 16,0 h 8 v 8 h -8 z m 8,0 h 8 v 8 h -8 z m 16,0 h 8 v 8 h -8 z m 8,0 h 8 v 8 h -8 z m 40,0 h 8 v 8 h -8 z m 24,0 h 8 v 8 h -8 z m 16,0 h 8 v 8 h -8 z m 48,0 h 8 v 8 h -8 z M 8,24 h 8 v 8 H 8 Z m 16,0 h 8 v 8 h -8 z m 8,0 h 8 v 8 h -8 z m 8,0 h 8 v 8 h -8 z m 16,0 h 8 v 8 h -8 z m 24,0 h 8 v 8 h -8 z m 8,0 h 8 v 8 h -8 z m 8,0 h 8 v 8 h -8 z m 24,0 h 8 v 8 h -8 z m 16,0 h 8 v 8 h -8 z m 16,0 h 8 v 8 h -8 z m 8,0 h 8 v 8 h -8 z m 8,0 h 8 v 8 h -8 z m 16,0 h 8 v 8 h -8 z m 16,0 h 8 v 8 h -8 z m 8,0 h 8 v 8 h -8 z m 8,0 h 8 v 8 h -8 z m 16,0 h 8 v 8 h -8 z M 8,32 h 8 v 8 H 8 Z m 16,0 h 8 v 8 h -8 z m 8,0 h 8 v 8 h -8 z m 8,0 h 8 v 8 h -8 z m 16,0 h 8 v 8 h -8 z m 16,0 h 8 v 8 h -8 z m 8,0 h 8 v 8 h -8 z m 16,0 h 8 v 8 h -8 z m 48,0 h 8 v 8 h -8 z m 40,0 h 8 v 8 h -8 z m 16,0 h 8 v 8 h -8 z m 8,0 h 8 v 8 h -8 z m 8,0 h 8 v 8 h -8 z m 16,0 h 8 v 8 h -8 z M 8,40 h 8 v 8 H 8 Z m 16,0 h 8 v 8 h -8 z m 8,0 h 8 v 8 h -8 z m 8,0 h 8 v 8 h -8 z m 16,0 h 8 v 8 h -8 z m 32,0 h 8 v 8 h -8 z m 16,0 h 8 v 8 h -8 z m 8,0 h 8 v 8 h -8 z m 8,0 h 8 v 8 h -8 z m 8,0 h 8 v 8 h -8 z m 32,0 h 8 v 8 h -8 z m 8,0 h 8 v 8 h -8 z m 16,0 h 8 v 8 h -8 z m 16,0 h 8 v 8 h -8 z m 8,0 h 8 v 8 h -8 z m 8,0 h 8 v 8 h -8 z m 16,0 h 8 v 8 h -8 z M 8,48 h 8 v 8 H 8 Z m 48,0 h 8 v 8 h -8 z m 16,0 h 8 v 8 h -8 z m 16,0 h 8 v 8 h -8 z m 24,0 h 8 v 8 h -8 z m 8,0 h 8 v 8 h -8 z m 8,0 h 8 v 8 h -8 z m 8,0 h 8 v 8 h -8 z m 8,0 h 8 v 8 h -8 z m 8,0 h 8 v 8 h -8 z m 32,0 h 8 v 8 h -8 z m 48,0 h 8 v 8 h -8 z M 8,56 h 8 v 8 H 8 Z m 8,0 h 8 v 8 h -8 z m 8,0 h 8 v 8 h -8 z m 8,0 h 8 v 8 h -8 z m 8,0 h 8 v 8 h -8 z m 8,0 h 8 v 8 h -8 z m 8,0 h 8 v 8 h -8 z m 16,0 h 8 v 8 h -8 z m 16,0 h 8 v 8 h -8 z m 16,0 h 8 v 8 h -8 z m 16,0 h 8 v 8 h -8 z m 16,0 h 8 v 8 h -8 z m 16,0 h 8 v 8 h -8 z m 16,0 h 8 v 8 h -8 z m 16,0 h 8 v 8 h -8 z m 8,0 h 8 v 8 h -8 z m 8,0 h 8 v 8 h -8 z m 8,0 h 8 v 8 h -8 z m 8,0 h 8 v 8 h -8 z m 8,0 h 8 v 8 h -8 z m 8,0 h 8 v 8 h -8 z m -128,8 h 8 v 8 h -8 z m 8,0 h 8 v 8 h -8 z m 24,0 h 8 v 8 h -8 z m 24,0 h 8 v 8 h -8 z m 8,0 h 8 v 8 h -8 z M 8,72 h 8 v 8 H 8 Z m 8,0 h 8 v 8 h -8 z m 8,0 h 8 v 8 h -8 z m 8,0 h 8 v 8 h -8 z m 8,0 h 8 v 8 h -8 z m 16,0 h 8 v 8 h -8 z m 8,0 h 8 v 8 h -8 z m 8,0 h 8 v 8 h -8 z m 8,0 h 8 v 8 h -8 z m 8,0 h 8 v 8 h -8 z m 16,0 h 8 v 8 h -8 z m 16,0 h 8 v 8 h -8 z m 24,0 h 8 v 8 h -8 z m 16,0 h 8 v 8 h -8 z m 16,0 h 8 v 8 h -8 z m 16,0 h 8 v 8 h -8 z m 16,0 h 8 v 8 h -8 z m 16,0 h 8 v 8 h -8 z M 16,80 h 8 v 8 h -8 z m 16,0 h 8 v 8 h -8 z m 8,0 h 8 v 8 h -8 z m 24,0 h 8 v 8 h -8 z m 8,0 h 8 v 8 h -8 z m 8,0 h 8 v 8 h -8 z m 64,0 h 8 v 8 h -8 z m 8,0 h 8 v 8 h -8 z m 8,0 h 8 v 8 h -8 z m 8,0 h 8 v 8 h -8 z m 8,0 h 8 v 8 h -8 z m 8,0 h 8 v 8 h -8 z m 8,0 h 8 v 8 h -8 z m 8,0 h 8 v 8 h -8 z m 32,0 h 8 v 8 h -8 z M 16,88 h 8 v 8 h -8 z m 16,0 h 8 v 8 h -8 z m 8,0 h 8 v 8 h -8 z m 8,0 h 8 v 8 h -8 z m 8,0 h 8 v 8 h -8 z m 8,0 h 8 v 8 h -8 z m 16,0 h 8 v 8 h -8 z m 16,0 h 8 v 8 h -8 z m 8,0 h 8 v 8 h -8 z m 24,0 h 8 v 8 h -8 z m 8,0 h 8 v 8 h -8 z m 16,0 h 8 v 8 h -8 z m 16,0 h 8 v 8 h -8 z m 8,0 h 8 v 8 h -8 z M 24,96 h 8 v 8 h -8 z m 8,0 h 8 v 8 h -8 z m 8,0 h 8 v 8 h -8 z m 8,0 h 8 v 8 h -8 z m 24,0 h 8 v 8 h -8 z m 8,0 h 8 v 8 h -8 z m 8,0 h 8 v 8 h -8 z m 8,0 h 8 v 8 h -8 z m 24,0 h 8 v 8 h -8 z m 8,0 h 8 v 8 h -8 z m 8,0 h 8 v 8 h -8 z m 32,0 h 8 v 8 h -8 z m 24,0 h 8 v 8 h -8 z m 16,0 h 8 v 8 h -8 z m 16,0 h 8 v 8 h -8 z m -208,8 h 8 v 8 h -8 z m 16,0 h 8 v 8 h -8 z m 24,0 h 8 v 8 h -8 z m 16,0 h 8 v 8 h -8 z m 8,0 h 8 v 8 h -8 z m 16,0 h 8 v 8 h -8 z m 48,0 h 8 v 8 h -8 z m 24,0 h 8 v 8 h -8 z m 40,0 h 8 v 8 h -8 z m 8,0 h 8 v 8 h -8 z M 8,112 h 8 v 8 H 8 Z m 40,0 h 8 v 8 h -8 z m 24,0 h 8 v 8 h -8 z m 16,0 h 8 v 8 h -8 z m 16,0 h 8 v 8 h -8 z m 8,0 h 8 v 8 h -8 z m 8,0 h 8 v 8 h -8 z m 16,0 h 8 v 8 h -8 z m 16,0 h 8 v 8 h -8 z m 8,0 h 8 v 8 h -8 z m 8,0 h 8 v 8 h -8 z m 16,0 h 8 v 8 h -8 z m 16,0 h 8 v 8 h -8 z m 32,0 h 8 v 8 h -8 z M 8,120 h 8 v 8 H 8 Z m 8,0 h 8 v 8 h -8 z m 8,0 h 8 v 8 h -8 z m 32,0 h 8 v 8 h -8 z m 8,0 h 8 v 8 h -8 z m 48,0 h 8 v 8 h -8 z m 8,0 h 8 v 8 h -8 z m 8,0 h 8 v 8 h -8 z m 8,0 h 8 v 8 h -8 z m 56,0 h 8 v 8 h -8 z m 16,0 h 8 v 8 h -8 z m 8,0 h 8 v 8 h -8 z M 8,128 h 8 v 8 H 8 Z m 16,0 h 8 v 8 h -8 z m 24,0 h 8 v 8 h -8 z m 32,0 h 8 v 8 h -8 z m 8,0 h 8 v 8 h -8 z m 16,0 h 8 v 8 h -8 z m 8,0 h 8 v 8 h -8 z m 24,0 h 8 v 8 h -8 z m 32,0 h 8 v 8 h -8 z m 24,0 h 8 v 8 h -8 z m 8,0 h 8 v 8 h -8 z m 24,0 h 8 v 8 h -8 z M 8,136 h 8 v 8 H 8 Z m 40,0 h 8 v 8 h -8 z m 8,0 h 8 v 8 h -8 z m 8,0 h 8 v 8 h -8 z m 40,0 h 8 v 8 h -8 z m 16,0 h 8 v 8 h -8 z m 24,0 h 8 v 8 h -8 z m 48,0 h 8 v 8 h -8 z m 16,0 h 8 v 8 h -8 z m 8,0 h 8 v 8 h -8 z M 8,144 h 8 v 8 H 8 Z m 8,0 h 8 v 8 h -8 z m 8,0 h 8 v 8 h -8 z m 8,0 h 8 v 8 h -8 z m 16,0 h 8 v 8 h -8 z m 16,0 h 8 v 8 h -8 z m 24,0 h 8 v 8 h -8 z m 48,0 h 8 v 8 h -8 z m 8,0 h 8 v 8 h -8 z m 8,0 h 8 v 8 h -8 z m 8,0 h 8 v 8 h -8 z m 8,0 h 8 v 8 h -8 z m 16,0 h 8 v 8 h -8 z m 8,0 h 8 v 8 h -8 z m 8,0 h 8 v 8 h -8 z m 16,0 h 8 v 8 h -8 z m 16,0 h 8 v 8 h -8 z M 8,152 h 8 v 8 H 8 Z m 32,0 h 8 v 8 h -8 z m 8,0 h 8 v 8 h -8 z m 8,0 h 8 v 8 h -8 z m 8,0 h 8 v 8 h -8 z m 8,0 h 8 v 8 h -8 z m 8,0 h 8 v 8 h -8 z m 8,0 h 8 v 8 h -8 z m 8,0 h 8 v 8 h -8 z m 8,0 h 8 v 8 h -8 z m 24,0 h 8 v 8 h -8 z m 8,0 h 8 v 8 h -8 z m 40,0 h 8 v 8 h -8 z m 16,0 h 8 v 8 h -8 z m 24,0 h 8 v 8 h -8 z M 8,160 h 8 v 8 H 8 Z m 32,0 h 8 v 8 h -8 z m 8,0 h 8 v 8 h -8 z m 16,0 h 8 v 8 h -8 z m 8,0 h 8 v 8 h -8 z m 8,0 h 8 v 8 h -8 z m 16,0 h 8 v 8 h -8 z m 24,0 h 8 v 8 h -8 z m 48,0 h 8 v 8 h -8 z m 16,0 h 8 v 8 h -8 z m 8,0 h 8 v 8 h -8 z m 8,0 h 8 v 8 h -8 z m 24,0 h 8 v 8 h -8 z M 8,168 h 8 v 8 H 8 Z m 16,0 h 8 v 8 h -8 z m 8,0 h 8 v 8 h -8 z m 8,0 h 8 v 8 h -8 z m 16,0 h 8 v 8 h -8 z m 8,0 h 8 v 8 h -8 z m 24,0 h 8 v 8 h -8 z m 8,0 h 8 v 8 h -8 z m 32,0 h 8 v 8 h -8 z m 16,0 h 8 v 8 h -8 z m 16,0 h 8 v 8 h -8 z m 8,0 h 8 v 8 h -8 z m 8,0 h 8 v 8 h -8 z m 8,0 h 8 v 8 h -8 z m 8,0 h 8 v 8 h -8 z m 8,0 h 8 v 8 h -8 z m 16,0 h 8 v 8 h -8 z m 8,0 h 8 v 8 h -8 z m 8,0 h 8 v 8 h -8 z m -160,8 h 8 v 8 h -8 z m 8,0 h 8 v 8 h -8 z m 8,0 h 8 v 8 h -8 z m 16,0 h 8 v 8 h -8 z m 8,0 h 8 v 8 h -8 z m 8,0 h 8 v 8 h -8 z m 16,0 h 8 v 8 h -8 z m 16,0 h 8 v 8 h -8 z m 16,0 h 8 v 8 h -8 z m 32,0 h 8 v 8 h -8 z m 8,0 h 8 v 8 h -8 z m 8,0 h 8 v 8 h -8 z m 8,0 h 8 v 8 h -8 z m 8,0 h 8 v 8 h -8 z M 8,184 h 8 v 8 H 8 Z m 8,0 h 8 v 8 h -8 z m 8,0 h 8 v 8 h -8 z m 8,0 h 8 v 8 h -8 z m 8,0 h 8 v 8 h -8 z m 8,0 h 8 v 8 h -8 z m 8,0 h 8 v 8 h -8 z m 16,0 h 8 v 8 h -8 z m 8,0 h 8 v 8 h -8 z m 8,0 h 8 v 8 h -8 z m 24,0 h 8 v 8 h -8 z m 8,0 h 8 v 8 h -8 z m 8,0 h 8 v 8 h -8 z m 32,0 h 8 v 8 h -8 z m 8,0 h 8 v 8 h -8 z m 16,0 h 8 v 8 h -8 z m 16,0 h 8 v 8 h -8 z m 8,0 h 8 v 8 h -8 z m 8,0 h 8 v 8 h -8 z M 8,192 h 8 v 8 H 8 Z m 48,0 h 8 v 8 h -8 z m 24,0 h 8 v 8 h -8 z m 8,0 h 8 v 8 h -8 z m 16,0 h 8 v 8 h -8 z m 8,0 h 8 v 8 h -8 z m 24,0 h 8 v 8 h -8 z m 24,0 h 8 v 8 h -8 z m 8,0 h 8 v 8 h -8 z m 32,0 h 8 v 8 h -8 z m 32,0 h 8 v 8 h -8 z M 8,200 h 8 v 8 H 8 Z m 16,0 h 8 v 8 h -8 z m 8,0 h 8 v 8 h -8 z m 8,0 h 8 v 8 h -8 z m 16,0 h 8 v 8 h -8 z m 16,0 h 8 v 8 h -8 z m 8,0 h 8 v 8 h -8 z m 24,0 h 8 v 8 h -8 z m 16,0 h 8 v 8 h -8 z m 24,0 h 8 v 8 h -8 z m 24,0 h 8 v 8 h -8 z m 8,0 h 8 v 8 h -8 z m 8,0 h 8 v 8 h -8 z m 8,0 h 8 v 8 h -8 z m 8,0 h 8 v 8 h -8 z m 16,0 h 8 v 8 h -8 z m 8,0 h 8 v 8 h -8 z M 8,208 h 8 v 8 H 8 Z m 16,0 h 8 v 8 h -8 z m 8,0 h 8 v 8 h -8 z m 8,0 h 8 v 8 h -8 z m 16,0 h 8 v 8 h -8 z m 16,0 h 8 v 8 h -8 z m 8,0 h 8 v 8 h -8 z m 64,0 h 8 v 8 h -8 z m 8,0 h 8 v 8 h -8 z m 8,0 h 8 v 8 h -8 z m 32,0 h 8 v 8 h -8 z m 16,0 h 8 v 8 h -8 z m 8,0 h 8 v 8 h -8 z m 8,0 h 8 v 8 h -8 z m 8,0 h 8 v 8 h -8 z M 8,216 h 8 v 8 H 8 Z m 16,0 h 8 v 8 h -8 z m 8,0 h 8 v 8 h -8 z m 8,0 h 8 v 8 h -8 z m 16,0 h 8 v 8 h -8 z m 16,0 h 8 v 8 h -8 z m 16,0 h 8 v 8 h -8 z m 8,0 h 8 v 8 h -8 z m 8,0 h 8 v 8 h -8 z m 24,0 h 8 v 8 h -8 z m 8,0 h 8 v 8 h -8 z m 8,0 h 8 v 8 h -8 z m 24,0 h 8 v 8 h -8 z m 8,0 h 8 v 8 h -8 z m 8,0 h 8 v 8 h -8 z m 8,0 h 8 v 8 h -8 z m 8,0 h 8 v 8 h -8 z m 8,0 h 8 v 8 h -8 z m 8,0 h 8 v 8 h -8 z m 8,0 h 8 v 8 h -8 z M 8,224 h 8 v 8 H 8 Z m 48,0 h 8 v 8 h -8 z m 16,0 h 8 v 8 h -8 z m 8,0 h 8 v 8 h -8 z m 16,0 h 8 v 8 h -8 z m 24,0 h 8 v 8 h -8 z m 32,0 h 8 v 8 h -8 z m 16,0 h 8 v 8 h -8 z m 8,0 h 8 v 8 h -8 z m 16,0 h 8 v 8 h -8 z m 16,0 h 8 v 8 h -8 z m 16,0 h 8 v 8 h -8 z M 8,232 h 8 v 8 H 8 Z m 8,0 h 8 v 8 h -8 z m 8,0 h 8 v 8 h -8 z m 8,0 h 8 v 8 h -8 z m 8,0 h 8 v 8 h -8 z m 8,0 h 8 v 8 h -8 z m 8,0 h 8 v 8 h -8 z m 16,0 h 8 v 8 h -8 z m 16,0 h 8 v 8 h -8 z m 8,0 h 8 v 8 h -8 z m 32,0 h 8 v 8 h -8 z m 8,0 h 8 v 8 h -8 z m 8,0 h 8 v 8 h -8 z m 16,0 h 8 v 8 h -8 z m 16,0 h 8 v 8 h -8 z m 8,0 h 8 v 8 h -8 z m 8,0 h 8 v 8 h -8 z m 8,0 h 8 v 8 h -8 z m 8,0 h 8 v 8 h -8 z m 8,0 h 8 v 8 h -8 z"
           id="path397" /></g></g><path
       style="fill:#000000"
       d="M 10,10 H 20 V 20 H 10 Z m 10,0 H 30 V 20 H 20 Z m 10,0 H 40 V 20 H 30 Z m 10,0 H 50 V 20 H 40 Z m 10,0 H 60 V 20 H 50 Z m 10,0 H 70 V 20 H 60 Z m 10,0 H 80 V 20 H 70 Z m 30,0 h 10 v 10 h -10 z m 40,0 h 10 v 10 h -10 z m 30,0 h 10 v 10 h -10 z m 20,0 h 10 v 10 h -10 z m 10,0 h 10 v 10 h -10 z m 10,0 h 10 v 10 h -10 z m 10,0 h 10 v 10 h -10 z m 10,0 h 10 v 10 h -10 z m 10,0 h 10 v 10 h -10 z m 10,0 h 10 V 20 H 250 Z M 10,20 H 20 V 30 H 10 Z m 60,0 H 80 V 30 H 70 Z m 20,0 h 10 V 30 H 90 Z m 10,0 h 10 v 10 h -10 z m 20,0 h 10 v 10 h -10 z m 10,0 h 10 v 10 h -10 z m 30,0 h 10 v 10 h -10 z m 10,0 h 10 v 10 h -10 z m 20,0 h 10 v 10 h -10 z m 60,0 h 10 V 30 H 250 Z M 10,30 H 20 V 40 H 10 Z m 20,0 H 40 V 40 H 30 Z m 10,0 H 50 V 40 H 40 Z m 10,0 H 60 V 40 H 50 Z m 20,0 H 80 V 40 H 70 Z m 30,0 h 10 v 10 h -10 z m 10,0 h 10 v 10 h -10 z m 10,0 h 10 v 10 h -10 z m 30,0 h 10 v 10 h -10 z m 20,0 h 10 v 10 h -10 z m 20,0 h 10 v 10 h -10 z m 20,0 h 10 v 10 h -10 z m 10,0 h 10 v 10 h -10 z m 10,0 h 10 v 10 h -10 z m 20,0 h 10 V 40 H 250 Z M 10,40 H 20 V 50 H 10 Z m 20,0 H 40 V 50 H 30 Z m 10,0 H 50 V 50 H 40 Z m 10,0 H 60 V 50 H 50 Z m 20,0 H 80 V 50 H 70 Z m 20,0 h 10 V 50 H 90 Z m 10,0 h 10 v 10 h -10 z m 20,0 h 10 v 10 h -10 z m 20,0 h 10 v 10 h -10 z m 10,0 h 10 v 10 h -10 z m 10,0 h 10 v 10 h -10 z m 30,0 h 10 v 10 h -10 z m 20,0 h 10 v 10 h -10 z m 10,0 h 10 v 10 h -10 z m 10,0 h 10 v 10 h -10 z m 20,0 h 10 V 50 H 250 Z M 10,50 H 20 V 60 H 10 Z m 20,0 H 40 V 60 H 30 Z m 10,0 H 50 V 60 H 40 Z m 10,0 H 60 V 60 H 50 Z m 20,0 H 80 V 60 H 70 Z m 40,0 h 10 v 10 h -10 z m 20,0 h 10 v 10 h -10 z m 20,0 h 10 v 10 h -10 z m 20,0 h 10 v 10 h -10 z m 20,0 h 10 v 10 h -10 z m 20,0 h 10 v 10 h -10 z m 10,0 h 10 v 10 h -10 z m 10,0 h 10 v 10 h -10 z m 20,0 h 10 V 60 H 250 Z M 10,60 H 20 V 70 H 10 Z m 60,0 H 80 V 70 H 70 Z m 20,0 h 10 V 70 H 90 Z m 20,0 h 10 v 10 h -10 z m 40,0 h 10 v 10 h -10 z m 10,0 h 10 v 10 h -10 z m 30,0 h 10 v 10 h -10 z m 60,0 h 10 V 70 H 250 Z M 10,70 H 20 V 80 H 10 Z m 10,0 H 30 V 80 H 20 Z m 10,0 H 40 V 80 H 30 Z m 10,0 H 50 V 80 H 40 Z m 10,0 H 60 V 80 H 50 Z m 10,0 H 70 V 80 H 60 Z m 10,0 H 80 V 80 H 70 Z m 20,0 h 10 V 80 H 90 Z m 20,0 h 10 v 10 h -10 z m 20,0 h 10 v 10 h -10 z m 20,0 h 10 v 10 h -10 z m 20,0 h 10 v 10 h -10 z m 20,0 h 10 v 10 h -10 z m 10,0 h 10 v 10 h -10 z m 10,0 h 10 v 10 h -10 z m 10,0 h 10 v 10 h -10 z m 10,0 h 10 v 10 h -10 z m 10,0 h 10 v 10 h -10 z m 10,0 h 10 V 80 H 250 Z M 130,80 h 10 v 10 h -10 z m 40,0 h 10 V 90 H 170 Z M 10,90 h 10 v 10 H 10 Z m 10,0 h 10 v 10 H 20 Z m 10,0 h 10 v 10 H 30 Z m 10,0 h 10 v 10 H 40 Z m 10,0 h 10 v 10 H 50 Z m 20,0 h 10 v 10 H 70 Z m 10,0 h 10 v 10 H 80 Z m 10,0 h 10 v 10 H 90 Z m 10,0 h 10 v 10 h -10 z m 10,0 h 10 v 10 h -10 z m 20,0 h 10 v 10 h -10 z m 10,0 h 10 v 10 h -10 z m 10,0 h 10 v 10 h -10 z m 30,0 h 10 v 10 h -10 z m 20,0 h 10 v 10 h -10 z m 20,0 h 10 v 10 h -10 z m 20,0 h 10 v 10 H 240 Z M 10,100 h 10 v 10 H 10 Z m 30,0 h 10 v 10 H 40 Z m 20,0 h 10 v 10 H 60 Z m 30,0 h 10 v 10 H 90 Z m 10,0 h 10 v 10 h -10 z m 40,0 h 10 v 10 h -10 z m 40,0 h 10 v 10 h -10 z m 20,0 h 10 v 10 h -10 z m 40,0 h 10 v 10 H 240 Z M 10,110 h 10 v 10 H 10 Z m 10,0 h 10 v 10 H 20 Z m 30,0 h 10 v 10 H 50 Z m 10,0 h 10 v 10 H 60 Z m 10,0 h 10 v 10 H 70 Z m 30,0 h 10 v 10 h -10 z m 20,0 h 10 v 10 h -10 z m 10,0 h 10 v 10 h -10 z m 30,0 h 10 v 10 h -10 z m 10,0 h 10 v 10 h -10 z m 20,0 h 10 v 10 h -10 z m 10,0 h 10 v 10 h -10 z m 10,0 h 10 v 10 h -10 z m 10,0 h 10 v 10 h -10 z m 20,0 h 10 v 10 h -10 z m 10,0 h 10 v 10 H 250 Z M 10,120 h 10 v 10 H 10 Z m 30,0 h 10 v 10 H 40 Z m 20,0 h 10 v 10 H 60 Z m 40,0 h 10 v 10 h -10 z m 10,0 h 10 v 10 h -10 z m 10,0 h 10 v 10 h -10 z m 40,0 h 10 v 10 h -10 z m 10,0 h 10 v 10 h -10 z m 20,0 h 10 v 10 h -10 z m 60,0 h 10 v 10 H 250 Z M 20,130 h 10 v 10 H 20 Z m 10,0 h 10 v 10 H 30 Z m 10,0 h 10 v 10 H 40 Z m 20,0 h 10 v 10 H 60 Z m 10,0 h 10 v 10 H 70 Z m 20,0 h 10 v 10 H 90 Z m 10,0 h 10 v 10 h -10 z m 20,0 h 10 v 10 h -10 z m 10,0 h 10 v 10 h -10 z m 10,0 h 10 v 10 h -10 z m 10,0 h 10 v 10 h -10 z m 10,0 h 10 v 10 h -10 z m 20,0 h 10 v 10 h -10 z m 10,0 h 10 v 10 h -10 z m 10,0 h 10 v 10 h -10 z m 10,0 h 10 v 10 h -10 z m 20,0 h 10 v 10 h -10 z m 10,0 h 10 v 10 h -10 z m 10,0 h 10 v 10 H 250 Z M 10,140 h 10 v 10 H 10 Z m 10,0 h 10 v 10 H 20 Z m 10,0 h 10 v 10 H 30 Z m 10,0 h 10 v 10 H 40 Z m 10,0 h 10 v 10 H 50 Z m 30,0 h 10 v 10 H 80 Z m 30,0 h 10 v 10 h -10 z m 20,0 h 10 v 10 h -10 z m 20,0 h 10 v 10 h -10 z m 20,0 h 10 v 10 h -10 z m 30,0 h 10 v 10 h -10 z m 20,0 h 10 v 10 h -10 z m 20,0 h 10 v 10 H 240 Z M 10,150 h 10 v 10 H 10 Z m 40,0 h 10 v 10 H 50 Z m 10,0 h 10 v 10 H 60 Z m 10,0 h 10 v 10 H 70 Z m 10,0 h 10 v 10 H 80 Z m 10,0 h 10 v 10 H 90 Z m 20,0 h 10 v 10 h -10 z m 40,0 h 10 v 10 h -10 z m 10,0 h 10 v 10 h -10 z m 20,0 h 10 v 10 h -10 z m 10,0 h 10 v 10 h -10 z m 10,0 h 10 v 10 h -10 z m 10,0 h 10 v 10 h -10 z m 10,0 h 10 v 10 h -10 z m 20,0 h 10 v 10 h -10 z m 10,0 h 10 v 10 H 250 Z M 10,160 h 10 v 10 H 10 Z m 110,0 h 10 v 10 h -10 z m 30,0 h 10 v 10 h -10 z m 10,0 h 10 v 10 h -10 z m 20,0 h 10 v 10 h -10 z m 10,0 h 10 v 10 h -10 z m 10,0 h 10 v 10 h -10 z m 10,0 h 10 v 10 h -10 z m 40,0 h 10 v 10 H 250 Z M 10,170 h 10 v 10 H 10 Z m 60,0 h 10 v 10 H 70 Z m 10,0 h 10 v 10 H 80 Z m 10,0 h 10 v 10 H 90 Z m 10,0 h 10 v 10 h -10 z m 10,0 h 10 v 10 h -10 z m 10,0 h 10 v 10 h -10 z m 10,0 h 10 v 10 h -10 z m 10,0 h 10 v 10 h -10 z m 10,0 h 10 v 10 h -10 z m 20,0 h 10 v 10 h -10 z m 10,0 h 10 v 10 h -10 z m 10,0 h 10 v 10 h -10 z m 10,0 h 10 v 10 h -10 z m 10,0 h 10 v 10 h -10 z m 20,0 h 10 v 10 H 230 Z M 90,180 h 10 v 10 H 90 Z m 20,0 h 10 v 10 h -10 z m 10,0 h 10 v 10 h -10 z m 10,0 h 10 v 10 h -10 z m 30,0 h 10 v 10 h -10 z m 10,0 h 10 v 10 h -10 z m 40,0 h 10 v 10 h -10 z m 10,0 h 10 v 10 H 220 Z M 10,190 h 10 v 10 H 10 Z m 10,0 h 10 v 10 H 20 Z m 10,0 h 10 v 10 H 30 Z m 10,0 h 10 v 10 H 40 Z m 10,0 h 10 v 10 H 50 Z m 10,0 h 10 v 10 H 60 Z m 10,0 h 10 v 10 H 70 Z m 20,0 h 10 v 10 H 90 Z m 50,0 h 10 v 10 h -10 z m 30,0 h 10 v 10 h -10 z m 20,0 h 10 v 10 h -10 z m 20,0 h 10 v 10 h -10 z m 20,0 h 10 v 10 h -10 z m 10,0 h 10 v 10 h -10 z m 10,0 h 10 v 10 H 250 Z M 10,200 h 10 v 10 H 10 Z m 60,0 h 10 v 10 H 70 Z m 30,0 h 10 v 10 h -10 z m 10,0 h 10 v 10 h -10 z m 10,0 h 10 v 10 h -10 z m 50,0 h 10 v 10 h -10 z m 40,0 h 10 v 10 h -10 z m 10,0 h 10 v 10 H 220 Z M 10,210 h 10 v 10 H 10 Z m 20,0 h 10 v 10 H 30 Z m 10,0 h 10 v 10 H 40 Z m 10,0 h 10 v 10 H 50 Z m 20,0 h 10 v 10 H 70 Z m 20,0 h 10 v 10 H 90 Z m 30,0 h 10 v 10 h -10 z m 10,0 h 10 v 10 h -10 z m 10,0 h 10 v 10 h -10 z m 20,0 h 10 v 10 h -10 z m 10,0 h 10 v 10 h -10 z m 10,0 h 10 v 10 h -10 z m 10,0 h 10 v 10 h -10 z m 10,0 h 10 v 10 h -10 z m 10,0 h 10 v 10 h -10 z m 20,0 h 10 v 10 H 230 Z M 10,220 h 10 v 10 H 10 Z m 20,0 h 10 v 10 H 30 Z m 10,0 h 10 v 10 H 40 Z m 10,0 h 10 v 10 H 50 Z m 20,0 h 10 v 10 H 70 Z m 20,0 h 10 v 10 H 90 Z m 20,0 h 10 v 10 h -10 z m 10,0 h 10 v 10 h -10 z m 20,0 h 10 v 10 h -10 z m 30,0 h 10 v 10 h -10 z m 20,0 h 10 v 10 h -10 z m 20,0 h 10 v 10 h -10 z m 10,0 h 10 v 10 h -10 z m 10,0 h 10 v 10 h -10 z m 10,0 h 10 v 10 h -10 z m 10,0 h 10 v 10 H 250 Z M 10,230 h 10 v 10 H 10 Z m 20,0 h 10 v 10 H 30 Z m 10,0 h 10 v 10 H 40 Z m 10,0 h 10 v 10 H 50 Z m 20,0 h 10 v 10 H 70 Z m 20,0 h 10 v 10 H 90 Z m 10,0 h 10 v 10 h -10 z m 10,0 h 10 v 10 h -10 z m 30,0 h 10 v 10 h -10 z m 10,0 h 10 v 10 h -10 z m 10,0 h 10 v 10 h -10 z m 10,0 h 10 v 10 h -10 z m 50,0 h 10 v 10 h -10 z m 10,0 h 10 v 10 h -10 z m 20,0 h 10 v 10 H 250 Z M 10,240 h 10 v 10 H 10 Z m 60,0 h 10 v 10 H 70 Z m 20,0 h 10 v 10 H 90 Z m 40,0 h 10 v 10 h -10 z m 30,0 h 10 v 10 h -10 z m 10,0 h 10 v 10 h -10 z m 10,0 h 10 v 10 h -10 z m 20,0 h 10 v 10 h -10 z m 10,0 h 10 v 10 h -10 z m 10,0 h 10 v 10 h -10 z m 30,0 h 10 v 10 H 250 Z M 10,250 h 10 v 10 H 10 Z m 10,0 h 10 v 10 H 20 Z m 10,0 h 10 v 10 H 30 Z m 10,0 h 10 v 10 H 40 Z m 10,0 h 10 v 10 H 50 Z m 10,0 h 10 v 10 H 60 Z m 10,0 h 10 v 10 H 70 Z m 20,0 h 10 v 10 H 90 Z m 10,0 h 10 v 10 h -10 z m 20,0 h 10 v 10 h -10 z m 10,0 h 10 v 10 h -10 z m 10,0 h 10 v 10 h -10 z m 10,0 h 10 v 10 h -10 z m 30,0 h 10 v 10 h -10 z m 10,0 h 10 v 10 h -10 z m 10,0 h 10 v 10 h -10 z m 10,0 h 10 v 10 h -10 z m 10,0 h 10 v 10 h -10 z m 10,0 h 10 v 10 h -10 z m 10,0 h 10 v 10 h -10 z m 10,0 h 10 v 10 h -10 z"
       id="path432"
       transform="matrix(0.1,0,0,0.1,163.18831,69.57527)" /><g
       id="g614"
       transform="matrix(0.03817674,0,0,0.03817674,14.008795,88.917883)"
       style="display:inline"><g
         id="BoundingBox">&#10;	<polygon
   style="fill:none"
   points="1000,0 0,0 0,159 1000,159 "
   id="polygon577" />&#10;</g><g
         id="SIEMENS">&#10;	<g
   id="g594">&#10;		<path
   style="clip-rule:evenodd;fill-rule:evenodd"
   d="M 3.086,152.537 V 122.46 c 17.119,5.388 32.267,8.082 45.444,8.082 18.193,0 27.291,-4.809 27.291,-14.42 0,-3.583 -1.324,-6.594 -3.978,-9.032 C 69.129,104.504 62.178,100.919 51.008,96.326 30.966,88.085 17.897,81.057 11.818,75.244 3.939,67.571 0,57.895 0,46.202 0,31.144 5.74,19.667 17.212,11.78 28.557,3.962 43.33,0.057 61.554,0.057 c 10.041,0 24.574,1.848 43.583,5.549 V 34.539 C 90.993,28.889 77.864,26.07 65.734,26.07 c -17.081,0 -25.621,4.69 -25.621,14.091 0,3.514 1.72,6.38 5.165,8.602 2.865,1.798 10.759,5.596 23.665,11.406 18.583,8.253 30.954,15.427 37.118,21.529 7.314,7.238 10.978,16.604 10.978,28.084 0,16.501 -7.177,29.088 -21.521,37.761 -11.621,7.033 -26.69,10.535 -45.198,10.535 -15.63,0 -31.378,-1.841 -47.234,-5.541 z"
   id="path580" />&#10;		<polygon
   style="clip-rule:evenodd;fill-rule:evenodd"
   points="183.603,155.001 141.063,155.001 141.063,2.704 183.603,2.704 "
   id="polygon582" />&#10;		<polygon
   style="clip-rule:evenodd;fill-rule:evenodd"
   points="333.476,155.001 222.616,155.001 222.616,2.704 331.721,2.704 331.721,30.25 263.616,30.25 263.616,64.639 322.898,64.639 322.898,89.765 263.616,89.765 263.616,125.906 333.476,125.906 "
   id="polygon584" />&#10;		<polygon
   style="clip-rule:evenodd;fill-rule:evenodd"
   points="506.056,47.171 461.392,156.547 435.023,156.547 391.219,47.171 391.219,155.001 361.247,155.001 361.247,2.704 416.402,2.704 454.721,100.015 494.001,2.704 546.39,2.704 546.39,155.001 506.056,155.001 "
   id="polygon586" />&#10;		<polygon
   style="clip-rule:evenodd;fill-rule:evenodd"
   points="696.28,155.001 585.411,155.001 585.411,2.704 694.514,2.704 694.514,30.25 626.415,30.25 626.415,64.639 685.695,64.639 685.695,89.765 626.415,89.765 626.415,125.906 696.28,125.906 "
   id="polygon588" />&#10;		<polygon
   style="clip-rule:evenodd;fill-rule:evenodd"
   points="807.943,155.001 754.247,51.678 754.247,155.001 724.271,155.001 724.271,2.704 773.575,2.704 825.883,104.655 825.883,2.704 855.847,2.704 855.847,155.001 "
   id="polygon590" />&#10;		<path
   style="clip-rule:evenodd;fill-rule:evenodd"
   d="M 886.047,152.537 V 122.46 c 16.974,5.388 32.12,8.082 45.452,8.082 18.195,0 27.282,-4.809 27.282,-14.42 0,-3.583 -1.289,-6.594 -3.854,-9.032 -2.728,-2.586 -9.708,-6.171 -20.945,-10.764 C 914,88.153 900.918,81.128 894.783,75.244 886.908,67.639 882.976,57.927 882.976,46.098 c 0,-14.993 5.726,-26.432 17.21,-34.319 11.328,-7.818 26.118,-11.723 44.344,-11.723 10.247,0 23.525,1.627 39.81,4.896 l 3.761,0.653 v 28.933 c -14.146,-5.65 -27.313,-8.469 -39.508,-8.469 -17.016,0 -25.503,4.69 -25.503,14.091 0,3.514 1.711,6.38 5.147,8.602 2.73,1.729 10.656,5.529 23.778,11.406 18.442,8.253 30.787,15.427 37.005,21.529 7.325,7.238 10.98,16.604 10.98,28.084 0,16.501 -7.135,29.088 -21.406,37.761 -11.689,7.033 -26.796,10.535 -45.301,10.535 -15.647,0.001 -31.402,-1.84 -47.246,-5.54 z"
   id="path592" />&#10;	</g>&#10;</g></g></g><g
     inkscape:groupmode="layer"
     id="layer4"
     inkscape:label="cut_slot"
     style="display:inline"
     transform="translate(-11.304844,-17.691941)"><rect
       style="fill:none;stroke:#000000;stroke-width:0.0428212"
       id="rect344"
       width="110.95718"
       height="1.6571788"
       x="45.826328"
       y="56.86335" /></g></svg>
