<?xml version="1.0" encoding="UTF-8" standalone="no"?>
<svg
   width="184.82426134mm"
   height="66.92695041mm"
   viewBox="0 0 184.82426134 66.92695041"
   version="1.1"
   id="svg582"
   sodipodi:docname="box.svg"
   inkscape:version="1.2.2 (732a01da63, 2022-12-09)"
   xmlns:inkscape="http://www.inkscape.org/namespaces/inkscape"
   xmlns:sodipodi="http://sodipodi.sourceforge.net/DTD/sodipodi-0.dtd"
   xmlns="http://www.w3.org/2000/svg"
   xmlns:svg="http://www.w3.org/2000/svg"
   xmlns:lc="https://librecad.org">
  <defs
     id="defs586">
	 <ref
       param="Tello_SSID"
       label="Tello SSID"
       default="TELLO-XXXXXX"
       type="String"
       id="ref6"
       label_de-DE="Tello_SSID" />
	   <ref
       param="RMTT_SSID"
       label="RMTT SSID"
       default="RMTT-XXXXXX"
       type="String"
       id="ref8"
       label_de-DE="RMTT_SSID" />
  </defs>
  <sodipodi:namedview
     id="namedview584"
     pagecolor="#ffffff"
     bordercolor="#000000"
     borderopacity="0.25"
     inkscape:showpageshadow="2"
     inkscape:pageopacity="0.0"
     inkscape:pagecheckerboard="0"
     inkscape:deskcolor="#d1d1d1"
     inkscape:document-units="mm"
     showgrid="false"
     inkscape:zoom="1.3194364"
     inkscape:cx="350.52845"
     inkscape:cy="208.42232"
     inkscape:window-width="1920"
     inkscape:window-height="1137"
     inkscape:window-x="1912"
     inkscape:window-y="-8"
     inkscape:window-maximized="1"
     inkscape:current-layer="g48" />
  <g
     inkscape:groupmode="layer"
     id="layer1"
     inkscape:label="engrave"
     style="display:inline">
    <g
       id="g1268"
       transform="translate(21.719292,27.809542)">
      <g
         id="g1687"
         transform="matrix(0.02734255,0,0,0.02734255,90.603045,-19.107121)">
        <g
           id="BoundingBox">
	<polygon
   style="fill:none"
   points="1000,0 0,0 0,159 1000,159 "
   id="polygon1650" />

</g>
        <g
           id="SIEMENS">
	<g
   id="g1667">
		<path
   style="clip-rule:evenodd;fill-rule:evenodd"
   d="M 3.086,152.537 V 122.46 c 17.119,5.388 32.267,8.082 45.444,8.082 18.193,0 27.291,-4.809 27.291,-14.42 0,-3.583 -1.324,-6.594 -3.978,-9.032 C 69.129,104.504 62.178,100.919 51.008,96.326 30.966,88.085 17.897,81.057 11.818,75.244 3.939,67.571 0,57.895 0,46.202 0,31.144 5.74,19.667 17.212,11.78 28.557,3.962 43.33,0.057 61.554,0.057 c 10.041,0 24.574,1.848 43.583,5.549 V 34.539 C 90.993,28.889 77.864,26.07 65.734,26.07 c -17.081,0 -25.621,4.69 -25.621,14.091 0,3.514 1.72,6.38 5.165,8.602 2.865,1.798 10.759,5.596 23.665,11.406 18.583,8.253 30.954,15.427 37.118,21.529 7.314,7.238 10.978,16.604 10.978,28.084 0,16.501 -7.177,29.088 -21.521,37.761 -11.621,7.033 -26.69,10.535 -45.198,10.535 -15.63,0 -31.378,-1.841 -47.234,-5.541 z"
   id="path1653" />

		<polygon
   style="clip-rule:evenodd;fill-rule:evenodd"
   points="183.603,155.001 141.063,155.001 141.063,2.704 183.603,2.704 "
   id="polygon1655" />

		<polygon
   style="clip-rule:evenodd;fill-rule:evenodd"
   points="331.721,30.25 263.616,30.25 263.616,64.639 322.898,64.639 322.898,89.765 263.616,89.765 263.616,125.906 333.476,125.906 333.476,155.001 222.616,155.001 222.616,2.704 331.721,2.704 "
   id="polygon1657" />

		<polygon
   style="clip-rule:evenodd;fill-rule:evenodd"
   points="361.247,2.704 416.402,2.704 454.721,100.015 494.001,2.704 546.39,2.704 546.39,155.001 506.056,155.001 506.056,47.171 461.392,156.547 435.023,156.547 391.219,47.171 391.219,155.001 361.247,155.001 "
   id="polygon1659" />

		<polygon
   style="clip-rule:evenodd;fill-rule:evenodd"
   points="694.514,30.25 626.415,30.25 626.415,64.639 685.695,64.639 685.695,89.765 626.415,89.765 626.415,125.906 696.28,125.906 696.28,155.001 585.411,155.001 585.411,2.704 694.514,2.704 "
   id="polygon1661" />

		<polygon
   style="clip-rule:evenodd;fill-rule:evenodd"
   points="807.943,155.001 754.247,51.678 754.247,155.001 724.271,155.001 724.271,2.704 773.575,2.704 825.883,104.655 825.883,2.704 855.847,2.704 855.847,155.001 "
   id="polygon1663" />

		<path
   style="clip-rule:evenodd;fill-rule:evenodd"
   d="M 886.047,152.537 V 122.46 c 16.974,5.388 32.12,8.082 45.452,8.082 18.195,0 27.282,-4.809 27.282,-14.42 0,-3.583 -1.289,-6.594 -3.854,-9.032 -2.728,-2.586 -9.708,-6.171 -20.945,-10.764 C 914,88.153 900.918,81.128 894.783,75.244 886.908,67.639 882.976,57.927 882.976,46.098 c 0,-14.993 5.726,-26.432 17.21,-34.319 11.328,-7.818 26.118,-11.723 44.344,-11.723 10.247,0 23.525,1.627 39.81,4.896 l 3.761,0.653 v 28.933 c -14.146,-5.65 -27.313,-8.469 -39.508,-8.469 -17.016,0 -25.503,4.69 -25.503,14.091 0,3.514 1.711,6.38 5.147,8.602 2.73,1.729 10.656,5.529 23.778,11.406 18.442,8.253 30.787,15.427 37.005,21.529 7.325,7.238 10.98,16.604 10.98,28.084 0,16.501 -7.135,29.088 -21.406,37.761 -11.689,7.033 -26.796,10.535 -45.301,10.535 -15.647,0.001 -31.402,-1.84 -47.246,-5.54 z"
   id="path1665" />

	</g>

</g>
      </g>
      <text
	     th:text="${Tello_SSID}"
         xml:space="preserve"
         style="font-size:3.175px;text-align:center;text-anchor:middle;fill:#000000;fill-opacity:1;stroke:none;stroke-width:0.013;stroke-dasharray:none"
         x="104.33633"
         y="-4.368742"
         id="text1743"><tspan
           sodipodi:role="line"
           style="text-align:center;text-anchor:middle;fill:#000000;fill-opacity:1;stroke:none;stroke-width:0.013"
           x="104.33633"
           y="-4.368742"
           id="tspan612">TELLO-638C90</tspan></text>
      <text
	     th:text="Tello-Controller"
         xml:space="preserve"
         style="font-size:3.175px;text-align:center;text-anchor:middle;fill:#000000;fill-opacity:1;stroke:none;stroke-width:0.013;stroke-dasharray:none"
         x="104.28284"
         y="-11.063936"
         id="text1743-8"><tspan
           sodipodi:role="line"
           style="text-align:center;text-anchor:middle;fill:#000000;fill-opacity:1;stroke:none;stroke-width:0.013"
           x="104.28284"
           y="-11.063936"
           id="tspan1924">Tello-Controller</tspan></text>
      <g
         id="g2770"
         transform="translate(80.645372,-29.68403)"
         style="fill:#000000;fill-opacity:1;stroke:none">
        <text
		   th:text="Landen"
           xml:space="preserve"
           style="font-size:3.175px;fill:#000000;fill-opacity:1;stroke:none;stroke-width:0.013;stroke-dasharray:none"
           x="-54.573654"
           y="17.963608"
           id="text2760"
           transform="rotate(-90)"><tspan
             sodipodi:role="line"
             id="tspan2758"
             style="fill:#000000;fill-opacity:1;stroke:none;stroke-width:0.013"
             x="-54.573654"
             y="17.963608">Landen</tspan></text>
        <text
           th:text="E-Stop"
		   xml:space="preserve"
           style="font-size:3.175px;fill:#000000;fill-opacity:1;stroke:none;stroke-width:0.013;stroke-dasharray:none"
           x="-54.573654"
           y="30.9438"
           id="text2764"
           transform="rotate(-90)"><tspan
             sodipodi:role="line"
             id="tspan2762"
             style="fill:#000000;fill-opacity:1;stroke:none;stroke-width:0.013"
             x="-54.573654"
             y="30.9438">E-Stop</tspan></text>
      </g>
      <text
	     th:text="${RMTT_SSID}"
         xml:space="preserve"
         style="font-size:3.175px;text-align:center;text-anchor:middle;fill:#000000;fill-opacity:1;stroke:none;stroke-width:0.013;stroke-dasharray:none"
         x="104.33633"
         y="-0.86551112"
         id="text1743-6"><tspan
           sodipodi:role="line"
           id="tspan1741-6"
           style="text-align:center;text-anchor:middle;fill:#000000;fill-opacity:1;stroke:none;stroke-width:0.013"
           x="104.33633"
           y="-0.86551112">RMTT-9B0514</tspan></text>
    </g>
  </g>
  <g
     inkscape:groupmode="layer"
     id="layer2"
     inkscape:label="cut"
     style="display:inline">
    <g
       lc:layername="0"
       lc:is_locked="false"
       lc:is_construction="false"
       fill="none"
       stroke="#000000"
       stroke-width="0"
       id="g30">
      <circle
         cx="120.375"
         cy="58.426949"
         r="3.5"
         id="circle2" />
      <circle
         cx="131.625"
         cy="58.426949"
         r="2.5"
         id="circle4" />
      <line
         x1="22"
         y1="26.92695"
         x2="22"
         y2="29.92695"
         id="line6" />
      <line
         x1="22"
         y1="29.92695"
         x2="14"
         y2="29.92695"
         id="line8" />
      <line
         x1="14"
         y1="29.92695"
         x2="14"
         y2="26.92695"
         id="line10" />
      <line
         x1="22"
         y1="26.92695"
         x2="31"
         y2="26.92695"
         id="line12" />
      <line
         x1="31"
         y1="26.92695"
         x2="31"
         y2="25.22695"
         id="line14" />
      <line
         x1="31"
         y1="25.22695"
         x2="5"
         y2="25.22695"
         id="line16" />
      <line
         x1="5"
         y1="25.22695"
         x2="5"
         y2="26.92695"
         id="line18" />
      <line
         x1="5"
         y1="26.92695"
         x2="14"
         y2="26.92695"
         id="line20" />
      <circle
         cx="115.5"
         cy="48.926949"
         r="1.5"
         id="circle22" />
      <circle
         cx="136.5"
         cy="48.926949"
         r="1.5"
         id="circle24" />
      <circle
         cx="156.32426"
         cy="48.926949"
         r="1.25"
         id="circle26" />
      <circle
         cx="177.32426"
         cy="48.926949"
         r="1.25"
         id="circle28" />
    </g>
    <g
       lc:layername="16"
       lc:is_locked="false"
       lc:is_construction="false"
       fill="none"
       stroke="#000000"
       stroke-width="0"
       id="g48" />
    <g
       lc:layername="back_outsideCutPath"
       lc:is_locked="false"
       lc:is_construction="false"
       fill="none"
       stroke="#000000"
       stroke-width="0"
       id="g118">
      <line
         x1="0"
         y1="11.92695"
         x2="0"
         y2="21.17695"
         id="line58" />
      <line
         x1="0"
         y1="21.17695"
         x2="3"
         y2="21.17695"
         id="line60" />
      <line
         x1="3"
         y1="21.17695"
         x2="3"
         y2="28.67695"
         id="line62" />
      <line
         x1="3"
         y1="28.67695"
         x2="0"
         y2="28.67695"
         id="line64" />
      <line
         x1="0"
         y1="28.67695"
         x2="0"
         y2="36.176949"
         id="line66" />
      <line
         x1="0"
         y1="36.176949"
         x2="0"
         y2="37.926949"
         id="line68" />
      <line
         x1="0"
         y1="37.926949"
         x2="6.75"
         y2="37.926949"
         id="line70" />
      <line
         x1="6.75"
         y1="37.926949"
         x2="6.75"
         y2="34.926949"
         id="line72" />
      <line
         x1="6.75"
         y1="34.926949"
         x2="14.25"
         y2="34.926949"
         id="line74" />
      <line
         x1="14.25"
         y1="34.926949"
         x2="14.25"
         y2="37.926949"
         id="line76" />
      <line
         x1="14.25"
         y1="37.926949"
         x2="21.75"
         y2="37.926949"
         id="line78" />
      <line
         x1="21.75"
         y1="37.926949"
         x2="21.75"
         y2="34.926949"
         id="line80" />
      <line
         x1="21.75"
         y1="34.926949"
         x2="29.25"
         y2="34.926949"
         id="line82" />
      <line
         x1="29.25"
         y1="34.926949"
         x2="29.25"
         y2="37.926949"
         id="line84" />
      <line
         x1="29.25"
         y1="37.926949"
         x2="36"
         y2="37.926949"
         id="line86" />
      <line
         x1="36"
         y1="37.926949"
         x2="36"
         y2="28.67695"
         id="line88" />
      <line
         x1="36"
         y1="28.67695"
         x2="33"
         y2="28.67695"
         id="line90" />
      <line
         x1="33"
         y1="28.67695"
         x2="33"
         y2="21.17695"
         id="line92" />
      <line
         x1="33"
         y1="21.17695"
         x2="36"
         y2="21.17695"
         id="line94" />
      <line
         x1="36"
         y1="21.17695"
         x2="36"
         y2="13.67695"
         id="line96" />
      <line
         x1="36"
         y1="13.67695"
         x2="36"
         y2="11.92695"
         id="line98" />
      <line
         x1="36"
         y1="11.92695"
         x2="29.25"
         y2="11.92695"
         id="line100" />
      <line
         x1="29.25"
         y1="11.92695"
         x2="29.25"
         y2="14.92695"
         id="line102" />
      <line
         x1="29.25"
         y1="14.92695"
         x2="21.75"
         y2="14.92695"
         id="line104" />
      <line
         x1="21.75"
         y1="14.92695"
         x2="21.75"
         y2="11.92695"
         id="line106" />
      <line
         x1="21.75"
         y1="11.92695"
         x2="14.25"
         y2="11.92695"
         id="line108" />
      <line
         x1="14.25"
         y1="11.92695"
         x2="14.25"
         y2="14.92695"
         id="line110" />
      <line
         x1="14.25"
         y1="14.92695"
         x2="6.75"
         y2="14.92695"
         id="line112" />
      <line
         x1="6.75"
         y1="14.92695"
         x2="6.75"
         y2="11.92695"
         id="line114" />
      <line
         x1="6.75"
         y1="11.92695"
         x2="0"
         y2="11.92695"
         id="line116" />
    </g>
    <g
       lc:layername="bottom_outsideCutPath"
       lc:is_locked="false"
       lc:is_construction="false"
       fill="none"
       stroke="#000000"
       stroke-width="0"
       id="g224">
      <line
         x1="151.82426"
         y1="3.9269505"
         x2="151.82426"
         y2="7.6769505"
         id="line120" />
      <line
         x1="151.82426"
         y1="7.6769505"
         x2="148.82426"
         y2="7.6769505"
         id="line122" />
      <line
         x1="148.82426"
         y1="7.6769505"
         x2="148.82426"
         y2="15.17695"
         id="line124" />
      <line
         x1="148.82426"
         y1="15.17695"
         x2="151.82426"
         y2="15.17695"
         id="line126" />
      <line
         x1="151.82426"
         y1="15.17695"
         x2="151.82426"
         y2="22.67695"
         id="line128" />
      <line
         x1="151.82426"
         y1="22.67695"
         x2="148.82426"
         y2="22.67695"
         id="line130" />
      <line
         x1="148.82426"
         y1="22.67695"
         x2="148.82426"
         y2="30.17695"
         id="line132" />
      <line
         x1="148.82426"
         y1="30.17695"
         x2="151.82426"
         y2="30.17695"
         id="line134" />
      <line
         x1="151.82426"
         y1="30.17695"
         x2="151.82426"
         y2="37.676949"
         id="line136" />
      <line
         x1="151.82426"
         y1="37.676949"
         x2="148.82426"
         y2="37.676949"
         id="line138" />
      <line
         x1="148.82426"
         y1="37.676949"
         x2="148.82426"
         y2="45.176949"
         id="line140" />
      <line
         x1="148.82426"
         y1="45.176949"
         x2="151.82426"
         y2="45.176949"
         id="line142" />
      <line
         x1="151.82426"
         y1="45.176949"
         x2="151.82426"
         y2="52.676949"
         id="line144" />
      <line
         x1="151.82426"
         y1="52.676949"
         x2="148.82426"
         y2="52.676949"
         id="line146" />
      <line
         x1="148.82426"
         y1="52.676949"
         x2="148.82426"
         y2="60.176949"
         id="line148" />
      <line
         x1="148.82426"
         y1="60.176949"
         x2="151.82426"
         y2="60.176949"
         id="line150" />
      <line
         x1="151.82426"
         y1="60.176949"
         x2="151.82426"
         y2="63.926949"
         id="line152" />
      <line
         x1="151.82426"
         y1="63.926949"
         x2="155.57426"
         y2="63.926949"
         id="line154" />
      <line
         x1="155.57426"
         y1="63.926949"
         x2="155.57426"
         y2="66.926949"
         id="line156" />
      <line
         x1="155.57426"
         y1="66.926949"
         x2="163.07426"
         y2="66.926949"
         id="line158" />
      <line
         x1="163.07426"
         y1="66.926949"
         x2="163.07426"
         y2="63.926949"
         id="line160" />
      <line
         x1="163.07426"
         y1="63.926949"
         x2="170.57426"
         y2="63.926949"
         id="line162" />
      <line
         x1="170.57426"
         y1="63.926949"
         x2="170.57426"
         y2="66.926949"
         id="line164" />
      <line
         x1="170.57426"
         y1="66.926949"
         x2="178.07426"
         y2="66.926949"
         id="line166" />
      <line
         x1="178.07426"
         y1="66.926949"
         x2="178.07426"
         y2="63.926949"
         id="line168" />
      <line
         x1="178.07426"
         y1="63.926949"
         x2="181.82426"
         y2="63.926949"
         id="line170" />
      <line
         x1="181.82426"
         y1="63.926949"
         x2="181.82426"
         y2="60.176949"
         id="line172" />
      <line
         x1="181.82426"
         y1="60.176949"
         x2="184.82426"
         y2="60.176949"
         id="line174" />
      <line
         x1="184.82426"
         y1="60.176949"
         x2="184.82426"
         y2="52.676949"
         id="line176" />
      <line
         x1="184.82426"
         y1="52.676949"
         x2="181.82426"
         y2="52.676949"
         id="line178" />
      <line
         x1="181.82426"
         y1="52.676949"
         x2="181.82426"
         y2="45.176949"
         id="line180" />
      <line
         x1="181.82426"
         y1="45.176949"
         x2="184.82426"
         y2="45.176949"
         id="line182" />
      <line
         x1="184.82426"
         y1="45.176949"
         x2="184.82426"
         y2="37.676949"
         id="line184" />
      <line
         x1="184.82426"
         y1="37.676949"
         x2="181.82426"
         y2="37.676949"
         id="line186" />
      <line
         x1="181.82426"
         y1="37.676949"
         x2="181.82426"
         y2="30.17695"
         id="line188" />
      <line
         x1="181.82426"
         y1="30.17695"
         x2="184.82426"
         y2="30.17695"
         id="line190" />
      <line
         x1="184.82426"
         y1="30.17695"
         x2="184.82426"
         y2="22.67695"
         id="line192" />
      <line
         x1="184.82426"
         y1="22.67695"
         x2="181.82426"
         y2="22.67695"
         id="line194" />
      <line
         x1="181.82426"
         y1="22.67695"
         x2="181.82426"
         y2="15.17695"
         id="line196" />
      <line
         x1="181.82426"
         y1="15.17695"
         x2="184.82426"
         y2="15.17695"
         id="line198" />
      <line
         x1="184.82426"
         y1="15.17695"
         x2="184.82426"
         y2="7.6769505"
         id="line200" />
      <line
         x1="184.82426"
         y1="7.6769505"
         x2="181.82426"
         y2="7.6769505"
         id="line202" />
      <line
         x1="181.82426"
         y1="7.6769505"
         x2="181.82426"
         y2="3.9269505"
         id="line204" />
      <line
         x1="181.82426"
         y1="3.9269505"
         x2="178.07426"
         y2="3.9269505"
         id="line206" />
      <line
         x1="178.07426"
         y1="3.9269505"
         x2="178.07426"
         y2="0.9269504"
         id="line208" />
      <line
         x1="178.07426"
         y1="0.9269504"
         x2="170.57426"
         y2="0.9269504"
         id="line210" />
      <line
         x1="170.57426"
         y1="0.9269504"
         x2="170.57426"
         y2="3.9269505"
         id="line212" />
      <line
         x1="170.57426"
         y1="3.9269505"
         x2="163.07426"
         y2="3.9269505"
         id="line214" />
      <line
         x1="163.07426"
         y1="3.9269505"
         x2="163.07426"
         y2="0.9269504"
         id="line216" />
      <line
         x1="163.07426"
         y1="0.9269504"
         x2="155.57426"
         y2="0.9269504"
         id="line218" />
      <line
         x1="155.57426"
         y1="0.9269504"
         x2="155.57426"
         y2="3.9269505"
         id="line220" />
      <line
         x1="155.57426"
         y1="3.9269505"
         x2="151.82426"
         y2="3.9269505"
         id="line222" />
    </g>
    <g
       lc:layername="front_outsideCutPath"
       lc:is_locked="false"
       lc:is_construction="false"
       fill="none"
       stroke="#000000"
       stroke-width="0"
       id="g286">
      <line
         x1="0"
         y1="40.926949"
         x2="0"
         y2="50.176949"
         id="line226" />
      <line
         x1="0"
         y1="50.176949"
         x2="3"
         y2="50.176949"
         id="line228" />
      <line
         x1="3"
         y1="50.176949"
         x2="3"
         y2="57.676949"
         id="line230" />
      <line
         x1="3"
         y1="57.676949"
         x2="0"
         y2="57.676949"
         id="line232" />
      <line
         x1="0"
         y1="57.676949"
         x2="0"
         y2="65.176949"
         id="line234" />
      <line
         x1="0"
         y1="65.176949"
         x2="0"
         y2="66.926949"
         id="line236" />
      <line
         x1="0"
         y1="66.926949"
         x2="6.75"
         y2="66.926949"
         id="line238" />
      <line
         x1="6.75"
         y1="66.926949"
         x2="6.75"
         y2="63.926949"
         id="line240" />
      <line
         x1="6.75"
         y1="63.926949"
         x2="14.25"
         y2="63.926949"
         id="line242" />
      <line
         x1="14.25"
         y1="63.926949"
         x2="14.25"
         y2="66.926949"
         id="line244" />
      <line
         x1="14.25"
         y1="66.926949"
         x2="21.75"
         y2="66.926949"
         id="line246" />
      <line
         x1="21.75"
         y1="66.926949"
         x2="21.75"
         y2="63.926949"
         id="line248" />
      <line
         x1="21.75"
         y1="63.926949"
         x2="29.25"
         y2="63.926949"
         id="line250" />
      <line
         x1="29.25"
         y1="63.926949"
         x2="29.25"
         y2="66.926949"
         id="line252" />
      <line
         x1="29.25"
         y1="66.926949"
         x2="36"
         y2="66.926949"
         id="line254" />
      <line
         x1="36"
         y1="66.926949"
         x2="36"
         y2="57.676949"
         id="line256" />
      <line
         x1="36"
         y1="57.676949"
         x2="33"
         y2="57.676949"
         id="line258" />
      <line
         x1="33"
         y1="57.676949"
         x2="33"
         y2="50.176949"
         id="line260" />
      <line
         x1="33"
         y1="50.176949"
         x2="36"
         y2="50.176949"
         id="line262" />
      <line
         x1="36"
         y1="50.176949"
         x2="36"
         y2="42.676949"
         id="line264" />
      <line
         x1="36"
         y1="42.676949"
         x2="36"
         y2="40.926949"
         id="line266" />
      <line
         x1="36"
         y1="40.926949"
         x2="29.25"
         y2="40.926949"
         id="line268" />
      <line
         x1="29.25"
         y1="40.926949"
         x2="29.25"
         y2="43.926949"
         id="line270" />
      <line
         x1="29.25"
         y1="43.926949"
         x2="21.75"
         y2="43.926949"
         id="line272" />
      <line
         x1="21.75"
         y1="43.926949"
         x2="21.75"
         y2="40.926949"
         id="line274" />
      <line
         x1="21.75"
         y1="40.926949"
         x2="14.25"
         y2="40.926949"
         id="line276" />
      <line
         x1="14.25"
         y1="40.926949"
         x2="14.25"
         y2="43.926949"
         id="line278" />
      <line
         x1="14.25"
         y1="43.926949"
         x2="6.75"
         y2="43.926949"
         id="line280" />
      <line
         x1="6.75"
         y1="43.926949"
         x2="6.75"
         y2="40.926949"
         id="line282" />
      <line
         x1="6.75"
         y1="40.926949"
         x2="0"
         y2="40.926949"
         id="line284" />
    </g>
    <g
       lc:layername="left_outsideCutPath"
       lc:is_locked="false"
       lc:is_construction="false"
       fill="none"
       stroke="#000000"
       stroke-width="0"
       id="g380">
      <line
         x1="42"
         y1="40.926949"
         x2="42"
         y2="50.176949"
         id="line288" />
      <line
         x1="42"
         y1="50.176949"
         x2="39"
         y2="50.176949"
         id="line290" />
      <line
         x1="39"
         y1="50.176949"
         x2="39"
         y2="57.676949"
         id="line292" />
      <line
         x1="39"
         y1="57.676949"
         x2="42"
         y2="57.676949"
         id="line294" />
      <line
         x1="42"
         y1="57.676949"
         x2="42"
         y2="65.176949"
         id="line296" />
      <line
         x1="42"
         y1="65.176949"
         x2="42"
         y2="66.926949"
         id="line298" />
      <line
         x1="42"
         y1="66.926949"
         x2="45.75"
         y2="66.926949"
         id="line300" />
      <line
         x1="45.75"
         y1="66.926949"
         x2="45.75"
         y2="63.926949"
         id="line302" />
      <line
         x1="45.75"
         y1="63.926949"
         x2="53.25"
         y2="63.926949"
         id="line304" />
      <line
         x1="53.25"
         y1="63.926949"
         x2="53.25"
         y2="66.926949"
         id="line306" />
      <line
         x1="53.25"
         y1="66.926949"
         x2="60.75"
         y2="66.926949"
         id="line308" />
      <line
         x1="60.75"
         y1="66.926949"
         x2="60.75"
         y2="63.926949"
         id="line310" />
      <line
         x1="60.75"
         y1="63.926949"
         x2="68.25"
         y2="63.926949"
         id="line312" />
      <line
         x1="68.25"
         y1="63.926949"
         x2="68.25"
         y2="66.926949"
         id="line314" />
      <line
         x1="68.25"
         y1="66.926949"
         x2="75.75"
         y2="66.926949"
         id="line316" />
      <line
         x1="75.75"
         y1="66.926949"
         x2="75.75"
         y2="63.926949"
         id="line318" />
      <line
         x1="75.75"
         y1="63.926949"
         x2="83.25"
         y2="63.926949"
         id="line320" />
      <line
         x1="83.25"
         y1="63.926949"
         x2="83.25"
         y2="66.926949"
         id="line322" />
      <line
         x1="83.25"
         y1="66.926949"
         x2="90.75"
         y2="66.926949"
         id="line324" />
      <line
         x1="90.75"
         y1="66.926949"
         x2="90.75"
         y2="63.926949"
         id="line326" />
      <line
         x1="90.75"
         y1="63.926949"
         x2="98.25"
         y2="63.926949"
         id="line328" />
      <line
         x1="98.25"
         y1="63.926949"
         x2="98.25"
         y2="66.926949"
         id="line330" />
      <line
         x1="98.25"
         y1="66.926949"
         x2="102"
         y2="66.926949"
         id="line332" />
      <line
         x1="102"
         y1="66.926949"
         x2="102"
         y2="57.676949"
         id="line334" />
      <line
         x1="102"
         y1="57.676949"
         x2="105"
         y2="57.676949"
         id="line336" />
      <line
         x1="105"
         y1="57.676949"
         x2="105"
         y2="50.176949"
         id="line338" />
      <line
         x1="105"
         y1="50.176949"
         x2="102"
         y2="50.176949"
         id="line340" />
      <line
         x1="102"
         y1="50.176949"
         x2="102"
         y2="42.676949"
         id="line342" />
      <line
         x1="102"
         y1="42.676949"
         x2="102"
         y2="40.926949"
         id="line344" />
      <line
         x1="102"
         y1="40.926949"
         x2="98.25"
         y2="40.926949"
         id="line346" />
      <line
         x1="98.25"
         y1="40.926949"
         x2="98.25"
         y2="43.926949"
         id="line348" />
      <line
         x1="98.25"
         y1="43.926949"
         x2="90.75"
         y2="43.926949"
         id="line350" />
      <line
         x1="90.75"
         y1="43.926949"
         x2="90.75"
         y2="40.926949"
         id="line352" />
      <line
         x1="90.75"
         y1="40.926949"
         x2="83.25"
         y2="40.926949"
         id="line354" />
      <line
         x1="83.25"
         y1="40.926949"
         x2="83.25"
         y2="43.926949"
         id="line356" />
      <line
         x1="83.25"
         y1="43.926949"
         x2="75.75"
         y2="43.926949"
         id="line358" />
      <line
         x1="75.75"
         y1="43.926949"
         x2="75.75"
         y2="40.926949"
         id="line360" />
      <line
         x1="75.75"
         y1="40.926949"
         x2="68.25"
         y2="40.926949"
         id="line362" />
      <line
         x1="68.25"
         y1="40.926949"
         x2="68.25"
         y2="43.926949"
         id="line364" />
      <line
         x1="68.25"
         y1="43.926949"
         x2="60.75"
         y2="43.926949"
         id="line366" />
      <line
         x1="60.75"
         y1="43.926949"
         x2="60.75"
         y2="40.926949"
         id="line368" />
      <line
         x1="60.75"
         y1="40.926949"
         x2="53.25"
         y2="40.926949"
         id="line370" />
      <line
         x1="53.25"
         y1="40.926949"
         x2="53.25"
         y2="43.926949"
         id="line372" />
      <line
         x1="53.25"
         y1="43.926949"
         x2="45.75"
         y2="43.926949"
         id="line374" />
      <line
         x1="45.75"
         y1="43.926949"
         x2="45.75"
         y2="40.926949"
         id="line376" />
      <line
         x1="45.75"
         y1="40.926949"
         x2="42"
         y2="40.926949"
         id="line378" />
    </g>
    <g
       lc:layername="right_outsideCutPath"
       lc:is_locked="false"
       lc:is_construction="false"
       fill="none"
       stroke="#000000"
       stroke-width="0"
       id="g474">
      <line
         x1="42"
         y1="11.92695"
         x2="42"
         y2="21.17695"
         id="line382" />
      <line
         x1="42"
         y1="21.17695"
         x2="39"
         y2="21.17695"
         id="line384" />
      <line
         x1="39"
         y1="21.17695"
         x2="39"
         y2="28.67695"
         id="line386" />
      <line
         x1="39"
         y1="28.67695"
         x2="42"
         y2="28.67695"
         id="line388" />
      <line
         x1="42"
         y1="28.67695"
         x2="42"
         y2="36.176949"
         id="line390" />
      <line
         x1="42"
         y1="36.176949"
         x2="42"
         y2="37.926949"
         id="line392" />
      <line
         x1="42"
         y1="37.926949"
         x2="45.75"
         y2="37.926949"
         id="line394" />
      <line
         x1="45.75"
         y1="37.926949"
         x2="45.75"
         y2="34.926949"
         id="line396" />
      <line
         x1="45.75"
         y1="34.926949"
         x2="53.25"
         y2="34.926949"
         id="line398" />
      <line
         x1="53.25"
         y1="34.926949"
         x2="53.25"
         y2="37.926949"
         id="line400" />
      <line
         x1="53.25"
         y1="37.926949"
         x2="60.75"
         y2="37.926949"
         id="line402" />
      <line
         x1="60.75"
         y1="37.926949"
         x2="60.75"
         y2="34.926949"
         id="line404" />
      <line
         x1="60.75"
         y1="34.926949"
         x2="68.25"
         y2="34.926949"
         id="line406" />
      <line
         x1="68.25"
         y1="34.926949"
         x2="68.25"
         y2="37.926949"
         id="line408" />
      <line
         x1="68.25"
         y1="37.926949"
         x2="75.75"
         y2="37.926949"
         id="line410" />
      <line
         x1="75.75"
         y1="37.926949"
         x2="75.75"
         y2="34.926949"
         id="line412" />
      <line
         x1="75.75"
         y1="34.926949"
         x2="83.25"
         y2="34.926949"
         id="line414" />
      <line
         x1="83.25"
         y1="34.926949"
         x2="83.25"
         y2="37.926949"
         id="line416" />
      <line
         x1="83.25"
         y1="37.926949"
         x2="90.75"
         y2="37.926949"
         id="line418" />
      <line
         x1="90.75"
         y1="37.926949"
         x2="90.75"
         y2="34.926949"
         id="line420" />
      <line
         x1="90.75"
         y1="34.926949"
         x2="98.25"
         y2="34.926949"
         id="line422" />
      <line
         x1="98.25"
         y1="34.926949"
         x2="98.25"
         y2="37.926949"
         id="line424" />
      <line
         x1="98.25"
         y1="37.926949"
         x2="102"
         y2="37.926949"
         id="line426" />
      <line
         x1="102"
         y1="37.926949"
         x2="102"
         y2="28.67695"
         id="line428" />
      <line
         x1="102"
         y1="28.67695"
         x2="105"
         y2="28.67695"
         id="line430" />
      <line
         x1="105"
         y1="28.67695"
         x2="105"
         y2="21.17695"
         id="line432" />
      <line
         x1="105"
         y1="21.17695"
         x2="102"
         y2="21.17695"
         id="line434" />
      <line
         x1="102"
         y1="21.17695"
         x2="102"
         y2="13.67695"
         id="line436" />
      <line
         x1="102"
         y1="13.67695"
         x2="102"
         y2="11.92695"
         id="line438" />
      <line
         x1="102"
         y1="11.92695"
         x2="98.25"
         y2="11.92695"
         id="line440" />
      <line
         x1="98.25"
         y1="11.92695"
         x2="98.25"
         y2="14.92695"
         id="line442" />
      <line
         x1="98.25"
         y1="14.92695"
         x2="90.75"
         y2="14.92695"
         id="line444" />
      <line
         x1="90.75"
         y1="14.92695"
         x2="90.75"
         y2="11.92695"
         id="line446" />
      <line
         x1="90.75"
         y1="11.92695"
         x2="83.25"
         y2="11.92695"
         id="line448" />
      <line
         x1="83.25"
         y1="11.92695"
         x2="83.25"
         y2="14.92695"
         id="line450" />
      <line
         x1="83.25"
         y1="14.92695"
         x2="75.75"
         y2="14.92695"
         id="line452" />
      <line
         x1="75.75"
         y1="14.92695"
         x2="75.75"
         y2="11.92695"
         id="line454" />
      <line
         x1="75.75"
         y1="11.92695"
         x2="68.25"
         y2="11.92695"
         id="line456" />
      <line
         x1="68.25"
         y1="11.92695"
         x2="68.25"
         y2="14.92695"
         id="line458" />
      <line
         x1="68.25"
         y1="14.92695"
         x2="60.75"
         y2="14.92695"
         id="line460" />
      <line
         x1="60.75"
         y1="14.92695"
         x2="60.75"
         y2="11.92695"
         id="line462" />
      <line
         x1="60.75"
         y1="11.92695"
         x2="53.25"
         y2="11.92695"
         id="line464" />
      <line
         x1="53.25"
         y1="11.92695"
         x2="53.25"
         y2="14.92695"
         id="line466" />
      <line
         x1="53.25"
         y1="14.92695"
         x2="45.75"
         y2="14.92695"
         id="line468" />
      <line
         x1="45.75"
         y1="14.92695"
         x2="45.75"
         y2="11.92695"
         id="line470" />
      <line
         x1="45.75"
         y1="11.92695"
         x2="42"
         y2="11.92695"
         id="line472" />
    </g>
    <g
       id="g1377">
      <g
         lc:layername="top_outsideCutPath"
         lc:is_locked="false"
         lc:is_construction="false"
         fill="none"
         stroke="#000000"
         stroke-width="0"
         id="g580">
        <line
           x1="111"
           y1="3.9269505"
           x2="111"
           y2="7.6769505"
           id="line476" />
        <line
           x1="111"
           y1="7.6769505"
           x2="108"
           y2="7.6769505"
           id="line478" />
        <line
           x1="108"
           y1="7.6769505"
           x2="108"
           y2="15.17695"
           id="line480" />
        <line
           x1="108"
           y1="15.17695"
           x2="111"
           y2="15.17695"
           id="line482" />
        <line
           x1="111"
           y1="15.17695"
           x2="111"
           y2="22.67695"
           id="line484" />
        <line
           x1="111"
           y1="22.67695"
           x2="108"
           y2="22.67695"
           id="line486" />
        <line
           x1="108"
           y1="22.67695"
           x2="108"
           y2="30.17695"
           id="line488" />
        <line
           x1="108"
           y1="30.17695"
           x2="111"
           y2="30.17695"
           id="line490" />
        <line
           x1="111"
           y1="30.17695"
           x2="111"
           y2="37.676949"
           id="line492" />
        <line
           x1="111"
           y1="37.676949"
           x2="108"
           y2="37.676949"
           id="line494" />
        <line
           x1="108"
           y1="37.676949"
           x2="108"
           y2="45.176949"
           id="line496" />
        <line
           x1="108"
           y1="45.176949"
           x2="111"
           y2="45.176949"
           id="line498" />
        <line
           x1="111"
           y1="45.176949"
           x2="111"
           y2="52.676949"
           id="line500" />
        <line
           x1="111"
           y1="52.676949"
           x2="108"
           y2="52.676949"
           id="line502" />
        <line
           x1="108"
           y1="52.676949"
           x2="108"
           y2="60.176949"
           id="line504" />
        <line
           x1="108"
           y1="60.176949"
           x2="111"
           y2="60.176949"
           id="line506" />
        <line
           x1="111"
           y1="60.176949"
           x2="111"
           y2="63.926949"
           id="line508" />
        <line
           x1="111"
           y1="63.926949"
           x2="114.75"
           y2="63.926949"
           id="line510" />
        <line
           x1="114.75"
           y1="63.926949"
           x2="114.75"
           y2="66.926949"
           id="line512" />
        <line
           x1="114.75"
           y1="66.926949"
           x2="122.25"
           y2="66.926949"
           id="line514" />
        <line
           x1="122.25"
           y1="66.926949"
           x2="122.25"
           y2="63.926949"
           id="line516" />
        <line
           x1="122.25"
           y1="63.926949"
           x2="129.75"
           y2="63.926949"
           id="line518" />
        <line
           x1="129.75"
           y1="63.926949"
           x2="129.75"
           y2="66.926949"
           id="line520" />
        <line
           x1="129.75"
           y1="66.926949"
           x2="137.25"
           y2="66.926949"
           id="line522" />
        <line
           x1="137.25"
           y1="66.926949"
           x2="137.25"
           y2="63.926949"
           id="line524" />
        <line
           x1="137.25"
           y1="63.926949"
           x2="141"
           y2="63.926949"
           id="line526" />
        <line
           x1="141"
           y1="63.926949"
           x2="141"
           y2="60.176949"
           id="line528" />
        <line
           x1="141"
           y1="60.176949"
           x2="144"
           y2="60.176949"
           id="line530" />
        <line
           x1="144"
           y1="60.176949"
           x2="144"
           y2="52.676949"
           id="line532" />
        <line
           x1="144"
           y1="52.676949"
           x2="141"
           y2="52.676949"
           id="line534" />
        <line
           x1="141"
           y1="52.676949"
           x2="141"
           y2="45.176949"
           id="line536" />
        <line
           x1="141"
           y1="45.176949"
           x2="144"
           y2="45.176949"
           id="line538" />
        <line
           x1="144"
           y1="45.176949"
           x2="144"
           y2="37.676949"
           id="line540" />
        <line
           x1="144"
           y1="37.676949"
           x2="141"
           y2="37.676949"
           id="line542" />
        <line
           x1="141"
           y1="37.676949"
           x2="141"
           y2="30.17695"
           id="line544" />
        <line
           x1="141"
           y1="30.17695"
           x2="144"
           y2="30.17695"
           id="line546" />
        <line
           x1="144"
           y1="30.17695"
           x2="144"
           y2="22.67695"
           id="line548" />
        <line
           x1="144"
           y1="22.67695"
           x2="141"
           y2="22.67695"
           id="line550" />
        <line
           x1="141"
           y1="22.67695"
           x2="141"
           y2="15.17695"
           id="line552" />
        <line
           x1="141"
           y1="15.17695"
           x2="144"
           y2="15.17695"
           id="line554" />
        <line
           x1="144"
           y1="15.17695"
           x2="144"
           y2="7.6769505"
           id="line556" />
        <line
           x1="144"
           y1="7.6769505"
           x2="141"
           y2="7.6769505"
           id="line558" />
        <line
           x1="141"
           y1="7.6769505"
           x2="141"
           y2="3.9269505"
           id="line560" />
        <line
           x1="141"
           y1="3.9269505"
           x2="137.25"
           y2="3.9269505"
           id="line562" />
        <line
           x1="137.25"
           y1="3.9269505"
           x2="137.25"
           y2="0.9269504"
           id="line564" />
        <line
           x1="137.25"
           y1="0.9269504"
           x2="129.75"
           y2="0.9269504"
           id="line566" />
        <line
           x1="129.75"
           y1="0.9269504"
           x2="129.75"
           y2="3.9269505"
           id="line568" />
        <line
           x1="129.75"
           y1="3.9269505"
           x2="122.25"
           y2="3.9269505"
           id="line570" />
        <line
           x1="122.25"
           y1="3.9269505"
           x2="122.25"
           y2="0.9269504"
           id="line572" />
        <line
           x1="122.25"
           y1="0.9269504"
           x2="114.75"
           y2="0.9269504"
           id="line574" />
        <line
           x1="114.75"
           y1="0.9269504"
           x2="114.75"
           y2="3.9269505"
           id="line576" />
        <line
           x1="114.75"
           y1="3.9269505"
           x2="111"
           y2="3.9269505"
           id="line578" />
      </g>
    </g>
  </g>
</svg>
